<svg viewBox="0 0 100.0 162.84" xmlns="http://www.w3.org/2000/svg" role="img" aria-label="C.F.D.L."><rect width="100.0" height="162.84" fill="#ffb923"/><polyline points="8.108,8.446 91.554,8.446 91.554,154.392 8.446,154.392 8.446,11.149 88.851,11.149 88.851,151.689 11.149,151.689 11.149,13.851 86.149,13.851 86.149,148.986 13.851,148.986 13.851,16.554 83.446,16.554 83.446,146.284 16.554,146.284 16.554,19.257 80.743,19.257 80.743,143.581 19.257,143.581 19.257,21.959 78.041,21.959 78.041,140.878 21.959,140.878 21.959,24.662 75.338,24.662 75.338,138.176 24.662,138.176 24.662,27.365" fill="none" stroke="#171513" stroke-width="0.676" stroke-linejoin="miter" stroke-linecap="butt"/></svg>